HIERARCHY
ROOT reference
{
  OFFSET 0 0 0
  CHANNELS 6 Xposition Yposition Zposition Zrotation Xrotation Yrotation
  JOINT Hips
  {
    OFFSET 11.155 81.6189 51.3133
    CHANNELS 6 Xposition Yposition Zposition Zrotation Xrotation Yrotation
    JOINT Spine
    {
      OFFSET 0 7.85829 0
      CHANNELS 6 Xposition Yposition Zposition Zrotation Xrotation Yrotation
      JOINT Spine1
      {
        OFFSET 0 25.1384 0
        CHANNELS 6 Xposition Yposition Zposition Zrotation Xrotation Yrotation
        JOINT Neck
        {
          OFFSET 0 25.0351 2.27592
          CHANNELS 6 Xposition Yposition Zposition Zrotation Xrotation Yrotation
          JOINT Head
          {
            OFFSET 0 13.4166 -1.91665
            CHANNELS 6 Xposition Yposition Zposition Zrotation Xrotation Yrotation
            End Site
            {
              OFFSET 0 23.9582 0
            }
          }
        }
        JOINT LeftShoulder
        {
          OFFSET 3.81534 24.0346 -0.234509
          CHANNELS 6 Xposition Yposition Zposition Zrotation Xrotation Yrotation
          JOINT LeftArm
          {
            OFFSET 8.62273 0 0
            CHANNELS 6 Xposition Yposition Zposition Zrotation Xrotation Yrotation
            JOINT LeftForeArm
            {
              OFFSET 31.7064 0 0
              CHANNELS 6 Xposition Yposition Zposition Zrotation Xrotation Yrotation
              JOINT LeftHand
              {
                OFFSET 23.7731 0 0
                CHANNELS 6 Xposition Yposition Zposition Zrotation Xrotation Yrotation
                End Site
                {
                  OFFSET 14.3749 0 0
                }
              }
            }
          }
        }
        JOINT RightShoulder
        {
          OFFSET -3.83608 24.0346 -0.234509
          CHANNELS 6 Xposition Yposition Zposition Zrotation Xrotation Yrotation
          JOINT RightArm
          {
            OFFSET -8.62273 0 0
            CHANNELS 6 Xposition Yposition Zposition Zrotation Xrotation Yrotation
            JOINT RightForeArm
            {
              OFFSET -31.7064 0 0
              CHANNELS 6 Xposition Yposition Zposition Zrotation Xrotation Yrotation
              JOINT RightHand
              {
                OFFSET -23.7731 0 0
                CHANNELS 6 Xposition Yposition Zposition Zrotation Xrotation Yrotation
                End Site
                {
                  OFFSET -14.3749 0 0
                }
              }
            }
          }
        }
      }
    }
    JOINT LeftUpLeg
    {
      OFFSET 9.58328 0 0
      CHANNELS 6 Xposition Yposition Zposition Zrotation Xrotation Yrotation
      JOINT LeftLeg
      {
        OFFSET 0 -36.4535 0
        CHANNELS 6 Xposition Yposition Zposition Zrotation Xrotation Yrotation
        JOINT LeftFoot
        {
          OFFSET 0 -41.4659 0
          CHANNELS 6 Xposition Yposition Zposition Zrotation Xrotation Yrotation
          JOINT LeftToeBase
          {
            OFFSET 0 -6.22913 14.3749
            CHANNELS 6 Xposition Yposition Zposition Zrotation Xrotation Yrotation
            End Site
            {
              OFFSET 0 0 3.83331
            }
          }
        }
      }
    }
    JOINT RightUpLeg
    {
      OFFSET -9.58328 0 0
      CHANNELS 6 Xposition Yposition Zposition Zrotation Xrotation Yrotation
      JOINT RightLeg
      {
        OFFSET 0 -36.4535 0
        CHANNELS 6 Xposition Yposition Zposition Zrotation Xrotation Yrotation
        JOINT RightFoot
        {
          OFFSET 0 -41.4659 0
          CHANNELS 6 Xposition Yposition Zposition Zrotation Xrotation Yrotation
          JOINT RightToeBase
          {
            OFFSET 0 -6.22913 14.3749
            CHANNELS 6 Xposition Yposition Zposition Zrotation Xrotation Yrotation
            End Site
            {
              OFFSET 0 0 3.83331
            }
          }
        }
      }
    }
  }
}
MOTION
Frames:	10
Frame Time:	0.004
0 0 0 0 0 -0 0.382452 77.7743 -194.996 1.62649 -1.1779 -0.924884 0 7.85829 0 -1.53838 -10.0881 -0.289131 -4.44089e-016 25.1384 0 1.27595 0.402958 -0.15836 -8.88178e-016 25.0351 2.27592 -1.5407 31.3176 1.51851 -1.11022e-016 13.4166 -1.91665 4.39667 -13.553 2.47555 3.81534 24.0346 -0.234509 8.85478 3.25755 4.50154 8.62273 2.84217e-014 0 -11.0747 6.45185 -3.40947 31.7064 2.84217e-014 2.84217e-014 5.20761 -6.6587 3.37781 23.7731 0 0 1.48235 -6.82042 -0.711974 -3.83608 24.0346 -0.234509 -7.99462 1.63809 4.45537 -8.62273 0 -2.84217e-014 4.82946 0.290147 -2.00031 -31.7064 0 0 -3.90626 -6.7644 2.08247 -23.7731 0 0 -10.5319 -6.88082 2.04136 9.58328 -1.42109e-014 2.84217e-014 0.827588 8.78122 0.298312 0 -36.4535 -2.84217e-014 -8.68259 -4.73151 1.2234 -1.77636e-015 -41.4659 0 13.7366 -9.14446 9.05163 0 -6.22913 14.3749 -3.97569e-016 7.95139e-016 1.59028e-015 -9.58328 0 2.84217e-014 -2.28986 4.70061 2.47499 -1.77636e-015 -36.4535 0 4.34561 6.18681 5.40679 0 -41.4659 0 -18.3048 -13.5253 -21.7869 0 -6.22913 14.3749 3.57812e-015 7.95139e-016 -1.59028e-015 
0 0 0 0 0 -0 0.382452 77.7743 -194.996 1.62657 -1.18211 -0.91769 -4.44089e-016 7.85829 0 -1.53836 -10.0836 -0.289127 4.44089e-016 25.1384 0 1.27595 0.402958 -0.15836 4.44089e-016 25.0351 2.27592 -1.529 31.3176 1.51277 0 13.4166 -1.91665 4.39083 -13.5367 2.47538 3.81534 24.0346 -0.234509 8.85938 3.26091 4.50435 8.62273 2.84217e-014 2.84217e-014 -11.0742 6.37767 -3.40747 31.7064 0 0 5.19148 -6.61174 3.35933 23.7731 0 -2.84217e-014 1.48296 -6.77214 -0.711903 -3.83608 24.0346 -0.234509 -7.99557 1.65021 4.4554 -8.62273 0 0 4.82747 0.234047 -1.99161 -31.7064 0 2.84217e-014 -3.90705 -6.74056 2.0831 -23.7731 0 0 -10.5315 -6.85802 2.05191 9.58328 1.42109e-014 2.84217e-014 0.827569 8.78493 0.298315 0 -36.4535 0 -8.67673 -4.73148 1.24058 0 -41.4659 0 13.7336 -9.14493 9.03314 0 -6.22913 14.3749 1.19271e-015 0 3.18055e-015 -9.58328 0 0 -2.29155 4.70054 2.49556 0 -36.4535 0 4.34564 6.1868 5.3489 0 -41.4659 0 -18.3217 -13.5285 -21.7523 -7.10543e-015 -6.22913 14.3749 1.98785e-016 0 -0 
0 0 0 0 0 -0 0.382452 77.7743 -194.996 1.62726 -1.16388 -0.898142 -4.44089e-016 7.85829 0 -1.53847 -10.1043 -0.289146 4.44089e-016 25.1384 2.84217e-014 1.27595 0.402958 -0.15836 -4.44089e-016 25.0351 2.27592 -1.55014 31.3202 1.50657 -1.11022e-016 13.4166 -1.91665 4.43057 -13.5261 2.47556 3.81534 24.0346 -0.234509 8.86159 3.46013 4.58197 8.62273 0 -2.84217e-014 -11.0833 6.23839 -3.54679 31.7064 2.84217e-014 -2.84217e-014 5.20913 -6.63251 3.38615 23.7731 -2.84217e-014 -2.84217e-014 1.48911 -6.79472 -0.711936 -3.83608 24.0346 -0.234509 -7.9958 1.65317 4.4554 -8.62273 -2.84217e-014 0 4.82718 0.22614 -1.98778 -31.7064 2.84217e-014 0 -3.90594 -6.74287 2.09187 -23.7731 2.84217e-014 2.84217e-014 -10.5452 -6.86 2.04808 9.58328 0 0 0.838223 8.76074 0.298296 -1.77636e-015 -36.4535 -2.84217e-014 -8.69228 -4.73148 1.24523 0 -41.4659 0 13.7248 -9.14502 9.02956 -7.10543e-015 -6.22913 14.3749 1.98785e-016 7.95139e-016 1.59028e-015 -9.58328 -1.42109e-014 0 -2.28484 4.70062 2.47165 -8.88178e-016 -36.4535 -2.84217e-014 4.33946 6.17365 5.36948 -3.55271e-015 -41.4659 0 -18.2964 -13.5283 -21.7545 -7.10543e-015 -6.22913 14.3749 1.39149e-015 -1.59028e-015 -4.77083e-015 
0 0 0 0 0 -0 0.382452 77.7743 -194.996 1.62733 -1.16523 -0.8937 4.44089e-016 7.85829 0 -1.53845 -10.1004 -0.289142 4.44089e-016 25.1384 2.84217e-014 1.26589 0.402958 -0.15836 0 25.0351 2.27592 -1.51223 31.3325 1.49307 2.22045e-016 13.4166 -1.91665 4.39567 -13.5355 2.45834 3.81534 24.0346 -0.234509 8.87264 3.25709 4.49318 8.62273 -2.84217e-014 2.84217e-014 -11.0804 6.38826 -3.39321 31.7064 2.84217e-014 0 5.19397 -6.61518 3.3525 23.7731 0 0 1.51578 -6.77543 -0.700922 -3.83608 24.0346 -0.234509 -7.99522 1.64152 4.46666 -8.62273 0 2.84217e-014 4.82757 0.235507 -2.00346 -31.7064 -2.84217e-014 0 -3.9044 -6.74161 2.1053 -23.7731 0 2.84217e-014 -10.5341 -6.85689 2.03595 9.58328 0 2.84217e-014 0.845224 8.76405 0.298298 1.77636e-015 -36.4535 0 -8.68612 -4.73145 1.26188 1.77636e-015 -41.4659 0 13.6989 -9.14583 8.99667 0 -6.22913 14.3749 -4.41391e-032 -1.59028e-015 -1.59028e-015 -9.58328 1.42109e-014 0 -2.2769 4.70002 2.49092 -1.77636e-015 -36.4535 0 4.34248 6.16748 5.24557 0 -41.4659 0 -18.2775 -13.5377 -21.6502 7.10543e-015 -6.22913 14.3749 4.37326e-015 0 -1.59028e-015 
0 0 0 0 0 -0 0.382452 77.7743 -194.996 1.64088 -1.18202 -0.902411 0 7.85829 0 -1.53835 -10.0822 -0.289126 0 25.1384 0 1.26928 0.402958 -0.15836 0 25.0351 2.27592 -1.54124 31.3366 1.49168 0 13.4166 -1.91665 4.44625 -13.535 2.46554 3.81534 24.0346 -0.234509 8.86559 3.47545 4.58184 8.62273 0 -2.84217e-014 -11.0846 6.20366 -3.54088 31.7064 -2.84217e-014 0 5.20638 -6.62723 3.37484 23.7731 0 -2.84217e-014 1.52849 -6.78906 -0.710547 -3.83608 24.0346 -0.234509 -7.99514 1.64161 4.46392 -8.62273 -2.84217e-014 0 4.82801 0.2487 -1.9984 -31.7064 2.84217e-014 0 -3.90372 -6.75394 2.10728 -23.7731 0 -2.84217e-014 -10.5152 -6.87094 2.06054 9.58328 1.42109e-014 0 0.821709 8.79066 0.29832 0 -36.4535 2.84217e-014 -8.66633 -4.7315 1.23249 0 -41.4659 0 13.6939 -9.14563 9.00501 0 -6.22913 14.3749 -5.96354e-016 -7.95139e-016 -0 -9.58328 1.42109e-014 0 -2.2959 4.71824 2.45578 -1.77636e-015 -36.4535 0 4.34205 6.17012 5.31625 -3.55271e-015 -41.4659 0 -18.3003 -13.5333 -21.6986 -7.10543e-015 -6.22913 14.3749 3.37934e-015 -7.95139e-016 1.59028e-015 
0 0 0 0 0 -0 0.382452 77.7743 -194.996 1.63548 -1.17706 -0.891234 -4.44089e-016 7.85829 -2.84217e-014 -1.53838 -10.0872 -0.28913 0 25.1384 0 1.27132 0.402958 -0.15836 0 25.0351 2.27592 -1.54076 31.347 1.47795 1.11022e-016 13.4166 -1.91665 4.4571 -13.5454 2.4543 3.81534 24.0346 -0.234509 8.86888 3.47319 4.57384 8.62273 2.84217e-014 -2.84217e-014 -11.0865 6.18057 -3.53379 31.7064 0 2.84217e-014 5.20973 -6.63266 3.37165 23.7731 0 0 1.54469 -6.79442 -0.698533 -3.83608 24.0346 -0.234509 -7.99497 1.63934 4.46397 -8.62273 -2.84217e-014 0 4.8273 0.228201 -2.00072 -31.7064 -2.84217e-014 -2.84217e-014 -3.89826 -6.74675 2.11683 -23.7731 2.84217e-014 0 -10.5376 -6.8643 2.06459 9.58328 1.42109e-014 0 0.83241 8.77973 0.298311 0 -36.4535 0 -8.6848 -4.72963 1.25827 -1.77636e-015 -41.4659 0 13.7064 -9.14371 9.00934 0 -6.22913 14.3749 -5.96354e-016 1.59028e-015 -1.59028e-015 -9.58328 0 0 -2.29443 4.71094 2.50845 8.88178e-016 -36.4535 2.84217e-014 4.35678 6.17375 5.26447 0 -41.4659 2.84217e-014 -18.2724 -13.547 -21.6935 0 -6.22913 14.3749 2.78299e-015 7.95139e-016 -0 
0 0 0 0 0 -0 0.382452 77.7725 -194.996 1.62666 -1.17794 -0.876611 4.44089e-016 7.85829 0 -1.53836 -10.0825 -0.289126 0 25.1384 -2.84217e-014 1.27922 0.402958 -0.15836 -4.44089e-016 25.0351 2.27592 -1.51084 31.3543 1.46533 0 13.4166 -1.91665 4.41713 -13.5487 2.4354 3.81534 24.0346 -0.234509 8.86871 3.47244 4.58446 8.62273 2.84217e-014 0 -11.0963 6.20597 -3.53189 31.7064 -2.84217e-014 0 5.22503 -6.65091 3.38218 23.7731 0 0 1.55008 -6.81372 -0.706359 -3.83608 24.0346 -0.234509 -7.99949 1.63268 4.46401 -8.62273 0 0 4.83306 0.254174 -2.00442 -31.7064 0 0 -3.90414 -6.76267 2.12281 -23.7731 0 0 -10.5235 -6.88065 2.07557 9.58328 1.42109e-014 -2.84217e-014 0.850791 8.779 0.29831 0 -36.4535 0 -8.6931 -4.72598 1.23092 0 -41.4659 2.84217e-014 13.7622 -9.16683 9.00937 0 -6.22913 14.3749 1.19271e-015 0 -0 -9.58328 0 0 -2.27787 4.71135 2.47854 0 -36.4535 0 4.35144 6.18354 5.34698 0 -41.4659 0 -18.3025 -13.5236 -21.7617 0 -6.22913 14.3749 -2.78299e-015 -7.95139e-016 -0 
0 0 0 0 0 -0 0.382452 77.7724 -194.996 1.62983 -1.17174 -0.874811 -4.44089e-016 7.85829 0 -1.53776 -10.0922 -0.285477 -4.44089e-016 25.1384 -2.84217e-014 1.28958 0.402958 -0.158237 -8.88178e-016 25.0351 2.27592 -1.532 31.3508 1.45452 0 13.4166 -1.91665 4.44623 -13.5358 2.42805 3.81534 24.0346 -0.234509 8.87012 3.47209 4.57021 8.62273 0 0 -11.0904 6.2366 -3.53109 31.7064 -2.84217e-014 2.84217e-014 5.24108 -6.6927 3.38694 23.7731 0 0 1.56221 -6.85605 -0.691093 -3.83608 24.0346 -0.234509 -8.01613 1.62537 4.46409 -8.62273 -5.68434e-014 -2.84217e-014 4.84674 0.264872 -2.00812 -31.7064 0 2.84217e-014 -3.91471 -6.76618 2.13248 -23.7731 0 0 -10.4958 -6.88369 2.08153 9.58328 0 0 0.840699 8.77736 0.298309 0 -36.4535 0 -8.68794 -4.74346 1.2612 1.77636e-015 -41.4659 2.84217e-014 13.7125 -9.14691 8.99602 0 -6.22913 14.3749 -1.39149e-015 0 -0 -9.58328 0 0 -2.27585 4.70259 2.47921 -1.77636e-015 -36.4535 0 4.35334 6.18702 5.33072 -3.55271e-015 -41.4659 0 -18.2971 -13.5242 -21.7649 0 -6.22913 14.3749 -1.59028e-015 -4.77083e-015 -3.18055e-015 
0 0 0 0 0 -0 0.382669 77.7722 -194.996 1.62786 -1.18761 -0.86761 4.44089e-016 7.85829 0 -1.53432 -10.0779 -0.285427 -4.44089e-016 25.1384 0 1.28206 0.405722 -0.158113 0 25.0351 2.27592 -1.51515 31.3522 1.44915 0 13.4166 -1.91665 4.4381 -13.5305 2.42262 3.81534 24.0346 -0.234509 8.8704 3.47167 4.57568 8.62273 0 0 -11.0951 6.19453 -3.53225 31.7064 0 -5.68434e-014 5.2357 -6.69056 3.37249 23.7731 2.84217e-014 0 1.56001 -6.85311 -0.693558 -3.83608 24.0346 -0.234509 -8.00887 1.62294 4.46429 -8.62273 0 0 4.84859 0.266261 -2.0124 -31.7064 0 -2.84217e-014 -3.92373 -6.7752 2.14083 -23.7731 -2.84217e-014 0 -10.4771 -6.8918 2.08282 9.58328 0 2.84217e-014 0.838834 8.79418 0.30661 -3.55271e-015 -36.4535 0 -8.68681 -4.73223 1.20692 -1.77636e-015 -41.4659 0 13.7429 -9.15358 9.01741 7.10543e-015 -6.22913 14.3749 1.19271e-015 1.59028e-015 -1.59028e-015 -9.58328 -1.42109e-014 0 -2.2813 4.7327 2.50132 1.77636e-015 -36.4535 0 4.35162 6.15829 5.23357 -3.55271e-015 -41.4659 0 -18.2695 -13.5402 -21.6797 0 -6.22913 14.3749 2.98177e-015 7.95139e-016 -0 
0 0 0 0 0 -0 0.385429 77.772 -194.996 1.6151 -1.21391 -0.862227 4.44089e-016 7.85829 2.84217e-014 -1.50336 -10.028 -0.285417 -4.44089e-016 25.1384 2.84217e-014 1.26927 0.380969 -0.158189 0 25.0351 2.27592 -1.49591 31.3828 1.4419 2.22045e-016 13.4166 -1.91665 4.39857 -13.5802 2.40915 3.81534 24.0346 -0.234509 8.87053 3.471 4.58403 8.62273 0 0 -11.094 6.24207 -3.54672 31.7064 -2.84217e-014 -2.84217e-014 5.25662 -6.73402 3.38704 23.7731 0 0 1.56416 -6.89767 -0.678456 -3.83608 24.0346 -0.234509 -8.00956 1.63068 4.46468 -8.62273 0 0 4.83994 0.245796 -2.01462 -31.7064 0 0 -3.91793 -6.77846 2.15117 -23.7731 2.84217e-014 0 -10.4674 -6.8948 2.08398 9.58328 0 0 0.843566 8.81856 0.286952 0 -36.4535 2.84217e-014 -8.67073 -4.73646 1.2335 -1.77636e-015 -41.4659 0 13.7514 -9.18858 9.00526 0 -6.22913 14.3749 1.78906e-015 -7.95139e-016 1.59028e-015 -9.58328 -1.42109e-014 2.84217e-014 -2.28696 4.73759 2.44593 -2.66454e-015 -36.4535 -2.84217e-014 4.36407 6.21044 5.4336 0 -41.4659 0 -18.3056 -13.5405 -21.833 0 -6.22913 14.3749 -1.39149e-015 0 -1.59028e-015 
